<svg xmlns="http://www.w3.org/2000/svg" xmlns:xlink="http://www.w3.org/1999/xlink" version="1.1" x="0px" y="0px" viewBox="-226.773 -231.031 283.465 288.787" enable-background="new -226.773 -231.031 283.465 288.787" xml:space="preserve" width="100px" height="100px">
<path fill="#ff5b5e" d="M-85.036,57.756l14.756-29.488l56.769,16.783V3.892L-62.33-10.557v-75.432L56.692-69.513v-32.794  L4.805-117.659v-16.86c0-7.745-6.328-14.07-14.058-14.07c-7.744,0-14.072,6.331-14.072,14.07v8.552l-39.005-11.541v-70.812  c0.005-12.5-10.215-22.711-22.706-22.711c-12.49,0-22.715,10.21-22.715,22.711v70.817l-39.005,11.541v-8.552  c0-7.745-6.333-14.068-14.063-14.068c-7.739,0-14.068,6.328-14.068,14.068v16.86l-51.886,15.352v32.794l119.021-16.475v75.432  l-48.805,14.444v41.164l56.764-16.778L-85.036,57.756z"></path>
</svg>