<svg xmlns="http://www.w3.org/2000/svg" xmlns:xlink="http://www.w3.org/1999/xlink" version="1.1" x="0px" y="0px" viewBox="0 0 100 125" style="enable-background:new 0 0 100 100;" xml:space="preserve"><path d="M82.9,2.2H38.7c-0.6,0-1.2,0.3-1.6,0.7l-30,32.9c-0.4,0.4-0.6,0.9-0.6,1.5v51.7c0,5.1,4.3,9.2,9.5,9.2h66.9  c5.2,0,9.5-4.1,9.5-9.2V11.4C92.4,6.3,88.2,2.2,82.9,2.2z M88,89.1c0,2.6-2.3,4.7-5.1,4.7H16c-2.8,0-5.1-2.1-5.1-4.7V38.2L39.6,6.7  h43.3c2.8,0,5.1,2.1,5.1,4.7V89.1z M30.5,40.7H17.6c-1.2,0-2.2-1-2.2-2.2c0-1.2,1-2.2,2.2-2.2h12.9c4.4,0,7.9-3.4,7.9-7.7V13.1  c0-1.2,1-2.2,2.2-2.2c1.2,0,2.2,1,2.2,2.2v15.4C42.9,35.2,37.3,40.7,30.5,40.7z M68.4,61.4C62.6,56.2,56.6,49.1,53,43.3  c1-3.6,1.6-6,1.6-6.1c0-0.2,0.1-0.3,0.1-0.5c0-6.8-4-7.2-4.8-7.2c-1.5,0-2.9,0.8-3.8,2.1c-1.7,2.6-1,6.6,2.1,12.2  c-1.8,6.2-5.3,16.6-9.7,23.1c-2.2,0.8-4.3,1.7-6.2,2.7c-4.4,2.1-8.5,4.5-9,7.6c-0.2,1.3,0.3,2.5,1.3,3.5c0.9,0.8,1.9,1.2,3.1,1.2  c3.8,0,8-4.4,11.9-9.1l0.5-0.6c0.4-0.5,0.8-1,1.2-1.5c6.9-2.4,14.8-4.2,22-4.9c0.5-0.1,1.8-0.1,3.4,0c6.5,5.6,9.1,5.6,9.9,5.6  c0,0,0,0,0,0c1.4,0,2.3-0.6,2.8-1.2c1.7-1.9,1.4-3.6,1-4.5C80,64.7,78.9,62,68.4,61.4z M28,77.4c0.4-0.5,1.4-1.3,3.5-2.4  C29.7,76.7,28.7,77.3,28,77.4z M49.7,34.1c0.2,0.3,0.4,1.1,0.4,2.3c0,0.2-0.1,0.4-0.2,0.8C49.5,35.6,49.5,34.6,49.7,34.1z   M44.9,64.9c2.6-5,4.7-10.8,6.4-16c3,4.2,6.8,8.7,10.7,12.6C56.5,62,50.5,63.2,44.9,64.9z M76.6,69.1v-2.2h0L76.6,69.1z"/><text x="0" y="115" fill="#000000" font-size="5px" font-weight="bold" font-family="'Helvetica Neue', Helvetica, Arial-Unicode, Arial, Sans-serif">Created by Dorothea C. Cornelius</text><text x="0" y="120" fill="#000000" font-size="5px" font-weight="bold" font-family="'Helvetica Neue', Helvetica, Arial-Unicode, Arial, Sans-serif">from the Noun Project</text></svg>